<svg width="930" height="223" viewBox="0 0 930 223" fill="none" xmlns="http://www.w3.org/2000/svg">
<path d="M54.5208 100.411C68.1771 100.411 81.2396 96.8177 91.3073 91.3073L83.6354 75.4896C74.2917 80.6406 64.1042 82.7969 54.5208 82.7969C34.0312 82.7969 19.1719 70.099 19.1719 50.5677V50.3281C19.1719 29.9583 33.6719 17.6146 54.5208 17.6146C64.8229 17.6146 74.7708 20.1302 83.6354 25.0469L91.3073 9.22917C80.8802 3.47917 67.6979 0 54.5208 0C21.4479 0 0 20.25 0 50.3281V50.5677C0 80.5208 21.6875 100.411 54.5208 100.411Z" fill="black"/>
<path d="M155.638 100.411C189.185 100.411 210.872 79.3229 210.872 50.2083V50.0885C210.872 20.9688 189.185 0 155.638 0C122.086 0 100.398 20.9688 100.398 50.0885V50.2083C100.398 79.3229 122.086 100.411 155.638 100.411ZM155.638 82.7969C134.43 82.7969 119.57 69.9792 119.57 50.3281V50.0885C119.57 30.1979 134.07 17.6146 155.638 17.6146C176.727 17.6146 191.586 30.4375 191.586 50.0885V50.3281C191.586 69.9792 176.846 82.7969 155.638 82.7969Z" fill="black"/>
<path d="M280.118 81.9585L252.201 1.67725H222.362V98.8543H241.055V15.9377L269.935 98.8543H290.3L319.06 16.4168V98.8543H337.873V1.67725H308.034L280.118 81.9585Z" fill="black"/>
<path d="M408.79 81.9585L380.874 1.67725H351.035V98.8543H369.728V15.9377L398.608 98.8543H418.973L447.733 16.4168V98.8543H466.546V1.67725H436.707L408.79 81.9585Z" fill="black"/>
<path d="M525 100.412C554.479 100.412 570.297 86.5106 570.297 59.9116V1.67725H551.485V55.3595C551.485 74.4116 542.974 82.4377 525 82.4377C507.032 82.4377 498.521 74.4116 498.521 55.3595V1.67725H479.589V59.9116C479.589 86.5106 495.407 100.412 525 100.412Z" fill="black"/>
<path d="M655.238 79.0835L609.706 1.67725H583.342V98.8543H602.035V20.1304L648.165 98.8543H674.05V1.67725H655.238V79.0835Z" fill="black"/>
<path d="M705.907 98.8543V1.67725H686.975V98.8543H705.907Z" fill="black"/>
<path d="M772.526 100.411C806.073 100.411 827.761 79.3229 827.761 50.2083V50.0885C827.761 20.9688 806.073 0 772.526 0C738.974 0 717.287 20.9688 717.287 50.0885V50.2083C717.287 79.3229 738.974 100.411 772.526 100.411ZM772.526 82.7969C751.318 82.7969 736.458 69.9792 736.458 50.3281V50.0885C736.458 30.1979 750.958 17.6146 772.526 17.6146C793.615 17.6146 808.474 30.4375 808.474 50.0885V50.3281C808.474 69.9792 793.735 82.7969 772.526 82.7969Z" fill="black"/>
<path d="M911.146 79.0835L865.615 1.67725H839.25V98.8543H857.943V20.1304L904.073 98.8543H929.959V1.67725H911.146V79.0835Z" fill="black"/>
<path d="M206.729 201.101L187.318 123.455H163.594L145.141 201.101L125.37 123.455H105L131.24 220.632H157.245L175.453 143.226L194.745 220.632H220.75L245.792 123.455H225.422L206.729 201.101Z" fill="black"/>
<path d="M273.092 220.632V123.455H254.16V220.632H273.092Z" fill="black"/>
<path d="M336.716 220.632V141.07H372.659V123.455H281.956V141.07H317.903V220.632H336.716Z" fill="black"/>
<path d="M400.447 220.632V179.893H452.093V220.632H470.901V123.455H452.093V162.278H400.447V123.455H381.515V220.632H400.447Z" fill="black"/>
<path d="M558.959 182.288H582.803V200.262C575.615 203.017 567.464 204.575 560.516 204.575C539.428 204.575 524.928 193.674 524.928 172.226V171.986C524.928 150.299 539.787 139.392 561.594 139.392C573.334 139.392 584.48 142.387 592.506 147.424L600.178 131.007C588.193 124.898 574.412 121.778 560.875 121.778C526.844 121.778 505.516 141.549 505.516 171.986V172.226C505.516 202.418 526.485 222.189 559.678 222.189C572.615 222.189 590.469 218.715 601.136 212.965V167.189H558.959V182.288Z" fill="black"/>
<path d="M668.222 222.189C701.769 222.189 723.457 201.101 723.457 171.986V171.866C723.457 142.747 701.769 121.778 668.222 121.778C634.67 121.778 612.983 142.747 612.983 171.866V171.986C612.983 201.101 634.67 222.189 668.222 222.189ZM668.222 204.575C647.014 204.575 632.155 191.757 632.155 172.106V171.866C632.155 151.976 646.655 139.392 668.222 139.392C689.311 139.392 704.17 152.215 704.17 171.866V172.106C704.17 191.757 689.431 204.575 668.222 204.575Z" fill="black"/>
<path d="M776.045 220.632C811.035 220.632 828.769 202.898 828.769 171.627V171.387C828.769 140.95 811.993 123.455 776.045 123.455H734.827V220.632H776.045ZM753.759 141.07H776.165C797.972 141.07 809.478 151.736 809.478 171.387V171.627C809.478 192.117 797.853 203.018 776.165 203.018H753.759V141.07Z" fill="black"/>
</svg>
