<svg width="962" height="723" viewBox="0 0 962 723" fill="none" xmlns="http://www.w3.org/2000/svg">
<mask id="mask0_357_940" style="mask-type:luminance" maskUnits="userSpaceOnUse" x="293" y="263" width="187" height="460">
<path d="M293.915 263.031H479.248V723H293.915V263.031Z" fill="white"/>
</mask>
<g mask="url(#mask0_357_940)">
<path d="M376.732 720.265C378.816 722.094 381.462 723.088 384.196 723.088C384.717 723.088 385.217 723.068 385.732 723C388.967 722.521 391.863 720.713 393.696 717.979L468.618 603.453C475.29 593.265 478.774 581.448 478.774 569.312V296.901C478.774 278.693 463.936 263.87 445.732 263.87C430.581 263.87 417.42 274.104 413.665 288.792L340.258 577.765C338.764 583.594 335.894 589.151 331.956 593.739L296.654 635.219C292.675 639.896 293.175 646.948 297.811 651.015L376.732 720.265ZM349.212 608.38C355.383 601.151 359.863 592.474 362.191 583.323L435.602 294.349C436.8 289.719 440.936 286.463 445.753 286.463C451.498 286.463 456.18 291.14 456.18 296.901V406.302C452.107 404.698 447.701 403.838 443.107 403.838C425.175 403.838 409.93 417.234 407.696 434.974L391.795 559.104C391.003 565.318 395.368 570.963 401.566 571.776C407.67 572.479 413.436 568.208 414.253 561.995L430.149 437.844C430.988 431.333 436.55 426.432 443.128 426.432C450.321 426.432 456.201 432.307 456.201 439.489V569.292C456.201 577.062 453.941 584.609 449.712 591.094L381.915 694.708L321.17 641.39L349.212 608.38Z" fill="black"/>
</g>
<mask id="mask1_357_940" style="mask-type:luminance" maskUnits="userSpaceOnUse" x="481" y="263" width="188" height="460">
<path d="M481.915 263.031H668.581V723H481.915V263.031Z" fill="white"/>
</mask>
<g mask="url(#mask1_357_940)">
<path d="M629.519 593.714C625.586 589.083 622.711 583.573 621.222 577.745L547.816 288.771C543.316 271.167 525.336 260.344 507.628 264.886C493.019 268.615 482.727 281.766 482.727 296.901V569.271C482.727 581.448 486.211 593.266 492.883 603.432L567.805 717.938C569.612 720.714 572.487 722.521 575.81 722.974C576.264 723.042 576.826 723.068 577.258 723.068C579.993 723.068 582.639 722.094 584.722 720.24L663.691 651.016C668.326 646.927 668.826 639.896 664.847 635.219L629.519 593.714ZM579.566 694.688L511.81 591.073C507.56 584.568 505.321 577.042 505.321 569.271V439.469C505.321 432.896 510.227 427.36 516.717 426.521C520.154 426.047 523.618 426.995 526.399 429.12C529.18 431.245 530.946 434.318 531.394 437.818L547.295 561.974C548.086 568.162 553.784 572.432 560.024 571.755C566.154 570.964 570.586 565.318 569.795 559.078L553.899 434.974C552.654 425.526 547.836 417.078 540.284 411.25C532.732 405.422 523.415 402.891 513.915 404.11C510.951 404.495 508.081 405.24 505.389 406.302V296.901C505.389 292.136 508.623 287.953 513.258 286.802C518.779 285.38 524.519 288.771 525.993 294.349L599.399 583.323C601.748 592.474 606.206 601.151 612.378 608.38L640.42 641.365L579.566 694.688Z" fill="black"/>
</g>
<mask id="mask2_357_940" style="mask-type:luminance" maskUnits="userSpaceOnUse" x="468" y="0" width="25" height="142">
<path d="M468.581 0H492.581V141.698H468.581V0Z" fill="white"/>
</mask>
<g mask="url(#mask2_357_940)">
<path d="M480.737 141.094C487.003 141.094 492.045 136.036 492.045 129.797V11.2031C492.045 4.98958 487.003 -0.09375 480.737 -0.09375C474.519 -0.09375 469.43 4.98958 469.43 11.2031V129.797C469.43 136.036 474.519 141.094 480.737 141.094Z" fill="black"/>
</g>
<path d="M199.753 98.7553C196.045 93.6928 188.966 92.6303 183.946 96.2917C178.899 99.9532 177.815 107.026 181.477 112.063L251.222 208.021C253.44 211.068 256.878 212.651 260.357 212.651C262.711 212.651 264.992 211.974 267.029 210.479C272.071 206.823 273.159 199.75 269.492 194.708L199.753 98.7553Z" fill="black"/>
<path d="M127.68 377.901L14.7843 341.255C8.86244 339.354 2.4614 342.588 0.560354 348.505C-1.38235 354.427 1.89369 360.797 7.79994 362.739L120.691 399.385C121.842 399.75 123.066 399.906 124.175 399.906C128.946 399.906 133.357 396.88 134.915 392.088C136.862 386.192 133.581 379.823 127.68 377.901Z" fill="black"/>
<path d="M120.711 609.375L7.82065 646.021C1.89356 647.943 -1.36164 654.333 0.586274 660.255C2.12273 665.021 6.55502 668.094 11.3259 668.094C12.4769 668.094 13.68 667.89 14.8102 667.552L127.701 630.906C133.628 628.984 136.883 622.588 134.935 616.672C133.039 610.708 126.618 607.432 120.711 609.375Z" fill="black"/>
<path d="M953.68 646.021L840.79 609.375C834.909 607.432 828.461 610.729 826.56 616.625C824.618 622.547 827.899 628.916 833.8 630.859L946.691 667.505C947.847 667.89 949.045 668.026 950.175 668.026C954.946 668.026 959.357 665 960.915 660.208C962.862 654.333 959.602 647.963 953.68 646.021Z" fill="black"/>
<path d="M946.717 341.255L833.821 377.901C827.899 379.823 824.685 386.213 826.628 392.135C828.123 396.901 832.602 399.953 837.373 399.953C838.524 399.953 839.722 399.771 840.857 399.432L953.748 362.786C959.675 360.864 962.883 354.469 960.941 348.552C959.019 342.562 952.618 339.354 946.717 341.255Z" fill="black"/>
<path d="M761.727 98.7553L691.982 194.708C688.321 199.792 689.425 206.823 694.446 210.479C696.482 211.927 698.769 212.651 701.118 212.651C704.602 212.651 708.061 211.068 710.253 208.021L779.998 112.063C783.665 106.979 782.555 99.9532 777.534 96.2917C772.514 92.6303 765.436 93.6928 761.727 98.7553Z" fill="black"/>
</svg>
