<svg width="184" height="159" viewBox="0 0 184 159" fill="none" xmlns="http://www.w3.org/2000/svg">
<ellipse cx="92" cy="97.8148" rx="61.088" ry="61.0423" fill="#F0EDE6"/>
<mask id="mask0_1314_607" style="mask-type:luminance" maskUnits="userSpaceOnUse" x="56" y="50" width="36" height="89">
<path d="M56.2453 50.5689H91.7118V139H56.2453V50.5689Z" fill="white"/>
</mask>
<g mask="url(#mask0_1314_607)">
<path d="M72.0938 138.474C72.4925 138.826 72.9988 139.017 73.5221 139.017C73.6217 139.017 73.7174 139.013 73.8161 139C74.4351 138.908 74.9892 138.56 75.3401 138.035L89.6776 116.017C90.9543 114.058 91.6211 111.786 91.6211 109.453V57.0805C91.6211 53.5799 88.7815 50.7301 85.2981 50.7301C82.3987 50.7301 79.88 52.6977 79.1614 55.5215L65.1139 111.078C64.8279 112.199 64.2787 113.267 63.5252 114.149L56.7696 122.124C56.0081 123.023 56.1038 124.379 56.9908 125.161L72.0938 138.474ZM66.8272 116.964C68.0083 115.574 68.8655 113.906 69.311 112.146L83.3595 56.5899C83.5887 55.6997 84.3801 55.0739 85.3021 55.0739C86.4014 55.0739 87.2975 55.9731 87.2975 57.0805V78.1134C86.518 77.805 85.6748 77.6398 84.7957 77.6398C81.3641 77.6398 78.4468 80.2152 78.0192 83.6257L74.9763 107.49C74.8248 108.685 75.66 109.77 76.8461 109.926C78.0142 110.062 79.1175 109.241 79.274 108.046L82.3159 84.1774C82.4764 82.9258 83.5409 81.9835 84.7997 81.9835C86.1762 81.9835 87.3014 83.113 87.3014 84.4938V109.449C87.3014 110.943 86.8689 112.394 86.0596 113.64L73.0855 133.561L61.461 123.31L66.8272 116.964Z" fill="black"/>
</g>
<mask id="mask1_1314_607" style="mask-type:luminance" maskUnits="userSpaceOnUse" x="92" y="50" width="36" height="89">
<path d="M92.2221 50.5689H127.944V139H92.2221V50.5689Z" fill="white"/>
</mask>
<g mask="url(#mask1_1314_607)">
<path d="M120.469 114.144C119.716 113.254 119.166 112.195 118.881 111.074L104.833 55.5175C103.972 52.133 100.532 50.0522 97.1428 50.9254C94.3471 51.6423 92.3776 54.1707 92.3776 57.0805V109.445C92.3776 111.786 93.0444 114.058 94.3212 116.013L108.659 138.027C109.005 138.56 109.555 138.908 110.191 138.995C110.277 139.008 110.385 139.013 110.468 139.013C110.991 139.013 111.497 138.826 111.896 138.469L127.008 125.161C127.895 124.375 127.991 123.023 127.229 122.124L120.469 114.144ZM110.909 133.557L97.9432 113.636C97.1299 112.386 96.7013 110.939 96.7013 109.445V84.4898C96.7013 83.2262 97.6402 82.1617 98.8821 82.0005C99.5399 81.9094 100.203 82.0917 100.735 82.5002C101.267 82.9087 101.605 83.4995 101.691 84.1724L104.734 108.042C104.885 109.232 105.976 110.053 107.17 109.922C108.343 109.77 109.191 108.685 109.039 107.485L105.998 83.6257C105.759 81.8093 104.837 80.1851 103.392 79.0646C101.947 77.9442 100.164 77.4575 98.3459 77.6918C97.7787 77.7659 97.2296 77.9091 96.7143 78.1134V57.0805C96.7143 56.1643 97.3332 55.3603 98.2203 55.139C99.2768 54.8656 100.375 55.5175 100.657 56.5899L114.705 112.146C115.154 113.906 116.007 115.574 117.188 116.964L122.555 123.305L110.909 133.557Z" fill="black"/>
</g>
<mask id="mask2_1314_607" style="mask-type:luminance" maskUnits="userSpaceOnUse" x="89" y="0" width="6" height="28">
<path d="M89.6705 0H94.2633V27.2421H89.6705V0Z" fill="white"/>
</mask>
<g mask="url(#mask2_1314_607)">
<path d="M91.9968 27.1259C93.1959 27.1259 94.1607 26.1536 94.1607 24.954V2.15384C94.1607 0.959258 93.1959 -0.0180359 91.9968 -0.0180359C90.8068 -0.0180359 89.833 0.959258 89.833 2.15384V24.954C89.833 26.1536 90.8068 27.1259 91.9968 27.1259Z" fill="black"/>
</g>
<path d="M38.2259 18.9861C37.5163 18.0128 36.1618 17.8086 35.2009 18.5125C34.2351 19.2164 34.0278 20.5762 34.7285 21.5445L48.0753 39.9929C48.4999 40.5787 49.1577 40.8831 49.8235 40.8831C50.274 40.8831 50.7106 40.7529 51.1003 40.4656C52.0651 39.7626 52.2734 38.4028 51.5717 37.4336L38.2259 18.9861Z" fill="black"/>
<path d="M24.4337 72.6531L2.82922 65.6078C1.69597 65.2423 0.471028 65.8641 0.107233 67.0016C-0.264536 68.1401 0.362388 69.3648 1.49264 69.7383L23.0961 76.7836C23.3164 76.8537 23.5506 76.8837 23.7629 76.8837C24.6759 76.8837 25.5201 76.302 25.8181 75.3807C26.1908 74.2472 25.5629 73.0226 24.4337 72.6531Z" fill="black"/>
<path d="M23.1 117.155L1.4966 124.2C0.362357 124.57 -0.260579 125.799 0.112186 126.937C0.406212 127.853 1.2544 128.444 2.16738 128.444C2.38765 128.444 2.61789 128.405 2.83417 128.34L24.4376 121.295C25.5719 120.925 26.1948 119.695 25.822 118.558C25.4592 117.411 24.2303 116.782 23.1 117.155Z" fill="black"/>
<path d="M182.502 124.2L160.899 117.155C159.773 116.782 158.539 117.415 158.176 118.549C157.804 119.687 158.432 120.912 159.561 121.285L181.165 128.331C181.386 128.405 181.615 128.431 181.831 128.431C182.744 128.431 183.588 127.849 183.887 126.928C184.259 125.798 183.635 124.574 182.502 124.2Z" fill="black"/>
<path d="M181.169 65.6078L159.565 72.6531C158.432 73.0226 157.817 74.2513 158.189 75.3898C158.475 76.306 159.332 76.8928 160.245 76.8928C160.465 76.8928 160.694 76.8577 160.912 76.7926L182.515 69.7473C183.649 69.3778 184.263 68.1482 183.891 67.0107C183.524 65.8592 182.299 65.2423 181.169 65.6078Z" fill="black"/>
<path d="M145.769 18.9861L132.422 37.4336C131.721 38.4108 131.933 39.7626 132.893 40.4656C133.283 40.7439 133.721 40.8831 134.17 40.8831C134.837 40.8831 135.499 40.5787 135.918 39.9929L149.265 21.5445C149.967 20.5672 149.755 19.2164 148.794 18.5125C147.833 17.8086 146.478 18.0128 145.769 18.9861Z" fill="black"/>
</svg>
